<svg xmlns="http://www.w3.org/2000/svg" viewBox="0 0 388.146 594.597">
  <g id="Layer_2" data-name="Layer 2">
    <g id="Objects">
      <g>
        <path d="M103.12,146.864l-5.514-5.317,1.246.717c2.86,1.647,5.088-2.467,2.533-4.334-.707-.516-1.383-1.059-2.054-1.607,1.645-.228,3.042-2.095,1.931-3.726l-1.1-1.619a1.936,1.936,0,0,0-.719-2.349l-1.977-1.54c-1.694-1.32-4.509-.121-4.39,1.807-.857-.17-1.737-.3-2.646-.387a2.088,2.088,0,0,0-2.317,1.773l-5.681-3.273c-2.444-1.408-5.13,1.935-3.045,3.947l1.966,1.9q-4.317-2.763-8.632-5.528c-1.86-1.191-3.809.577-3.735,2.371-.951-.549-1.889-1.115-2.844-1.656a2.642,2.642,0,0,0-3.8,2.353,21.574,21.574,0,0,0-4.8-1.263,2.485,2.485,0,0,0-3.016,2.542,2,2,0,0,0,.534,2.451l.879.718a2.661,2.661,0,0,0-1.687,1.938,2.293,2.293,0,0,0-2.11,3.8q4.019,4.134,8.17,8.123-3.983-2.832-7.931-5.717c-1.772-1.3-4.433,1.314-3.085,3.086q3.288,4.324,6.9,8.323c-.4-.2-.787-.417-1.184-.619a2.242,2.242,0,0,0-2.7,3.5c.935,1.13,1.9,2.226,2.877,3.308a2.228,2.228,0,0,0-2.127,3.688q1.493,1.6,2.981,3.2A2.115,2.115,0,0,0,53.9,170.96,33.961,33.961,0,0,0,62.66,177.1a1.551,1.551,0,0,0,1.834-.223l.94.517a2.2,2.2,0,0,0,2.657-3.444c-.6-.659-1.217-1.311-1.825-1.968q2,1.157,4,2.311c2.527,1.46,4.442-2.15,2.229-3.813q-3.361-2.523-6.461-5.317,2.781,1.749,5.489,3.613,3.9,3.092,8.071,5.893c2.48,1.659,4.517-2.182,2.284-3.907q-3.587-2.769-7.308-5.328-4.285-3.363-8.257-7.083,10.664,7.311,21.609,14.2c2.105,1.321,4.75-1.935,2.714-3.517q-5.541-4.308-10.887-8.843,6.23,4.784,12.294,9.786c1.95,1.613,4.662-.637,3.741-2.48.575.457,1.158.9,1.73,1.364,2.314,1.866,5.639-1.387,3.305-3.305l-2.843-2.333a2.574,2.574,0,0,0,.68-4.516c-1.077-.743-2.143-1.5-3.218-2.247l.488.308c2.376,1.5,4.52-1.559,3.247-3.52a2.777,2.777,0,0,0,1.167-2.293C102.678,152.087,105.094,148.767,103.12,146.864Z" style="fill: #fd0"/>
        <path d="M387.332,208.321l-25.4-34.165q9.49,8.469,19.55,16.293a2.346,2.346,0,0,0,3.315-3.316q-9.205-11.657-18.412-23.314,6.764,5.837,13.792,11.37a2.375,2.375,0,0,0,3.357-3.357l-16.863-20.548q7.583,5.969,15.581,11.406c2.389,1.622,4.558-1.81,2.905-3.764q-7.25-8.577-14.5-17.153l7.453,6.634c2.39,2.127,5.3-1.008,3.425-3.426q-7.041-9.1-14.45-17.891,3.206,2.762,6.412,5.52a2.43,2.43,0,0,0,3.435-3.435l-17.445-20.768,15.253,12.211c2.478,1.984,5.748-1.1,3.542-3.543q-9.342-10.355-18.691-20.7l14.909,11.2c2.405,1.806,4.971-1.974,3.1-4.01l-8.865-9.626q2.325,1.675,4.685,3.3c2.577,1.776,4.872-1.951,3.128-4.054-3.344-4.034-6.868-7.892-10.527-11.609q2.339,1.775,4.688,3.534c2.425,1.81,4.747-1.916,3.038-3.937q-3.42-4.047-6.931-8.009c.9.613,1.811,1.208,2.755,1.765,2.365,1.394,4.5-1.712,2.82-3.655q-5.445-6.282-10.961-12.5c1.844,1.57,3.688,3.141,5.549,4.691a2.353,2.353,0,0,0,3.326-3.326c-2.9-3.546-5.768-7.16-8.649-10.789l2.617,2.536c1.882,1.824,5.3-.572,3.746-2.89q-3.846-5.724-7.973-11.235,3.3,3.231,6.569,6.5c2.25,2.265,5.489-1.1,3.462-3.463q-6.627-7.739-13.03-15.659,3.846,3.51,7.692,7.019c2,1.83,5.793-.655,3.98-3.071L362.8,21.193q1.371.813,2.778,1.574a2.627,2.627,0,0,0,3.567-3.567,65.266,65.266,0,0,0-6.043-8.576,2.417,2.417,0,0,0,.336-3.9A13.054,13.054,0,0,0,354.85,3.2a2.714,2.714,0,0,0-2.515,3.5c-.551-.535-1.1-1.073-1.635-1.628-1.975-2.041-5.843.738-4.045,3.121q.822,1.092,1.645,2.182-4.836-4.4-9.674-8.794c-1.974-1.794-5.711.646-3.92,3.024q3.805,5.052,7.688,10.041-5.97-5.326-12.056-10.523c-2.345-1.992-5.708,1.238-3.426,3.425q9.414,9.02,17.886,18.881l-2.138-2.066c-6.744-6.519-13.586-15.552-22.614-18.885-2.7-1-3.753,2.83-1.808,4.29,12.442,9.341,22.837,21.3,32.713,33.585Q331.082,25.463,312.669,6.034c-2.115-2.187-5.419,1.132-3.334,3.334q3.508,3.707,7.074,7.356,16.8,17.57,33.055,35.637-6.387-5.839-12.712-11.75-17.331-16.236-34.3-32.87a1.287,1.287,0,0,0-1.82,1.819c1.576,1.655,3.164,3.3,4.747,4.942q-3.9-3.133-7.857-6.2c-2.511-1.936-4.969,2.345-2.489,4.258A483.509,483.509,0,0,1,351.8,64.022q-27.865-22.6-53.433-47.831c-3.047-3.157-6.13-6.28-9.287-9.334-2.171-2.1-5.357.809-3.906,3.087-.329-.325-.653-.654-.984-.976-2.3-2.233-5.78,1.242-3.518,3.517l4.543,4.569A207.229,207.229,0,0,1,306.83,43.459q-16.8-17.258-33.6-34.522c-2.235-2.3-5.435,1.077-3.461,3.462q9.858,11.909,19.221,24.2L265.036,11.818c-1.858-1.923-5.509.7-3.81,2.939l17.5,23.065q-14.658-14.049-29.311-28.1c-2.256-2.166-5.341,1.054-3.384,3.383q10.106,12.022,20.215,24.04-12.438-12-24.384-24.5c-2.146-2.249-5.421,1.1-3.389,3.389l10.881,12.284L233.381,13.528a2.383,2.383,0,0,0-3.369,3.368q8.744,9.651,17.338,19.435L223.976,14.683c-2.264-2.1-5.31,1.044-3.351,3.351l8.512,10.029q-5.387-5.372-10.769-10.746c-2.17-2.165-5.178,1.022-3.3,3.3q5.841,7.1,11.675,14.214l-16.2-16.19c-2.159-2.158-5.083,1-3.271,3.272l13.136,16.477L202.283,19.824c-2.1-2.153-5.134,1.02-3.255,3.255Q204.512,29.6,210,36.122L194.229,20.365c-2.1-2.1-5.268,1.1-3.246,3.247q3.091,3.288,6.118,6.636A147.955,147.955,0,0,0,182.906,17.97l-.011-.011v0c-.162-.122-.315-.252-.478-.373-2.249-1.674-4.582,1.824-2.87,3.72Q200.62,44.635,220.81,68.729L213.2,61.571l-5.573-7.092c-10.787-13.728-21.695-28.79-38.963-34.527-2.24-.744-3.977,2.36-2.294,3.941q21.792,20.462,43.479,41.035l11.412,14.5q-28.776-28.811-57.565-57.607c-2.223-2.221-5.489,1.112-3.425,3.425q14.293,16.016,28.594,32.023-17.708-16.758-36.026-32.887c-1.934-1.7-5.349.507-3.764,2.9A261.149,261.149,0,0,0,171.982,56.7Q157.1,40.8,142.208,24.893c-2.308-2.463-5.92,1.2-3.688,3.689Q160.979,53.6,183.468,78.6,170,64.627,156.223,50.964c-5.821-5.768-11.628-11.57-17.6-17.183-4.377-4.113-9.133-7.952-15.456-7.6a2.465,2.465,0,0,0-1.721,4.154C142,52.645,162.957,74.557,184.635,95.781q2.943,2.881,5.907,5.744-7.154-6.567-14.286-13.152-32.008-30.91-63.5-62.347c-2.349-2.346-5.843,1.2-3.626,3.626,19.115,20.959,39.7,40.442,60.641,59.548q5.649,5.46,11.3,10.912Q199,117.334,217.092,134.386c3.151,2.955,6.337,5.889,9.592,8.741q-40.95-35.906-79.787-74.052C132.505,54.949,118.317,39.97,99.863,31.15a2.737,2.737,0,0,0-3.1.6Q95.083,30.131,93.4,28.51c-1.914-1.853-5.236.539-3.763,2.9,1.709,2.743,3.469,5.442,5.252,8.122q-4.385-4.631-8.761-9.271c-1.953-2.074-5.842.759-4.041,3.118.134.175.27.346.4.521h0l0,.006q7.946,10.376,16.41,20.264c-8.6-9.343-17.863-18.011-29.93-22.695-1.685-.654-2.943.782-3.083,2.286-.991-.939-1.968-1.894-2.963-2.829-2.4-2.252-5.553,1.084-3.545,3.545,7.037,8.623,14.388,16.96,21.965,25.087-9.708-9.7-19.9-18.89-31.657-26.114-2.618-1.608-4.929,1.906-3.119,4.042,48.117,56.8,104.448,105.773,160.775,154.154q3.462,2.975,6.929,5.941c-46.49-36.21-89.27-77.122-130.655-119.026Q60.465,55.113,37.683,31.291c-2.236-2.329-5.37,1.058-3.461,3.462C82.147,95.112,141.845,144.472,199.354,195.259q15.864,14.01,31.474,28.3-6.936-4.62-13.618-9.595-33.35-29.25-66.707-58.494Q117.238,123.98,84.028,92.426q-5.9-6-11.771-12.028Q49.712,57.205,27.689,33.51c-1.887-2.029-4.76.546-3.653,2.819C27.78,44.018,33.354,50.447,39.4,56.422,46.32,63.269,53.467,69.9,60.529,76.6Q38.3,57.105,16.1,37.574A2.421,2.421,0,0,0,12.677,41C27.943,57.724,44.189,73.413,60.9,88.612Q34.442,65.764,7.073,44c-1.954-1.56-4.679.961-2.816,2.815Q21.07,63.544,37.913,80.243L6.661,52.938c-2-1.751-4.9,1.065-2.952,2.952Q24.123,75.635,44.538,95.376,25.571,80.183,6.6,64.986c-2.1-1.679-5.071,1.089-3.025,3.025Q18.81,82.431,34.19,96.693,21.322,86.859,8.466,77.008c-1.943-1.49-4.369,1.734-2.6,3.375q8.987,8.356,18.008,16.675Q15.979,90.989,8.1,84.909a2.092,2.092,0,0,0-2.956,2.956q6.931,8.114,14.335,15.77Q13.374,98.889,7.15,94.3c-1.99-1.466-4.143,1.638-2.558,3.316q7.769,8.227,15.533,16.461-5.688-4.827-11.379-9.649a2.122,2.122,0,0,0-3,3Q16.505,119.6,27.305,131.743L10.041,117.786c-2-1.617-4.814,1.008-2.891,2.891q11.16,10.933,22.317,21.869-9.018-6.459-18.035-12.921c-1.951-1.4-4.315,1.711-2.558,3.316l10.845,9.9q-3.62-2.458-7.28-4.857c-2.128-1.389-4.646,1.825-2.732,3.541q19.688,17.655,39.437,35.242Q31.14,161.877,13.119,147c-2.15-1.774-5.2,1.1-3.12,3.12q10.1,9.811,20.451,19.332c-4.845-3.435-9.823-6.7-14.977-9.729-2.09-1.229-4.536,1.746-2.646,3.429Q26,174.885,39.319,186.433L16.2,168.665c-1.982-1.523-4.6,1.858-2.686,3.481Q28.841,185.132,44.2,198.084q-13.482-10.305-26.962-20.613c-1.845-1.411-4.223,1.689-2.487,3.224q13.388,11.832,26.78,23.658c-8.314-5.97-16.794-11.708-25.512-17.106-1.919-1.187-4.278,1.7-2.464,3.194L27.8,202.128l-11.191-8.334c-1.814-1.35-4.207,1.718-2.435,3.157Q25.8,206.4,37.422,215.845L20.01,203.362c-1.885-1.352-4.248,1.7-2.489,3.225q9.153,7.928,18.574,15.536Q27.212,216.36,18.328,210.6c-1.806-1.171-4.042,1.622-2.335,3.026q7.993,6.579,15.993,13.152l-10.611-7.587c-1.648-1.178-3.491,1.373-2.122,2.75q7.17,7.214,14.689,14.044l-10.705-7.229c-1.551-1.048-3.437,1.365-2.013,2.608l13.7,11.966-10.063-6.559a1.582,1.582,0,0,0-1.909,2.474q5.25,4.906,10.506,9.807l-12.175-8.176c-1.428-.958-2.784,1.095-1.752,2.27q4.15,4.724,8.628,9.107-2.178-1.125-4.421-2.152a1.292,1.292,0,0,0-1.558,2.019q1.66,1.7,3.319,3.407-2.271-1.488-4.544-2.971c-.975-.638-2.372.667-1.654,1.653a38.554,38.554,0,0,0,9.454,9.216c1.3.894,2.527-1.2,1.272-2.106,1.063.691,2.129,1.378,3.192,2.071,1.149.749,2.33-.9,1.429-1.853l-5.291-5.581a105.793,105.793,0,0,1,10.174,6.562c1.262.924,2.891-1.17,1.682-2.179q-5.538-4.627-10.65-9.688,8.505,5.762,17.008,11.526c1.43.969,3.085-1.21,1.838-2.383q-5.581-5.253-11.169-10.5l14.223,9.315c1.519,1,3.343-1.32,1.957-2.536l-10.819-9.489L59.555,257.4c1.587,1.078,3.623-1.495,2.076-2.691q-10.919-8.436-21.222-17.588,16.655,11.943,33.31,23.883c1.643,1.178,3.747-1.517,2.176-2.821q-15.687-13.017-31.4-26l36.233,23.54c1.533,1,2.925-.451,2.831-1.871l5.542,3.965c1.84,1.317,4.215-1.718,2.439-3.16l-.832-.675,3.379,2.517c1.826,1.36,4.225-1.719,2.451-3.176L60.707,223.914C74,234.355,86.984,245.213,99.954,256.06c1.972,1.649,4.829-1.122,2.859-2.859q-21.1-18.6-42.136-37.264,24.735,18.975,49.5,37.905c1.876,1.433,4.351-1.758,2.538-3.29q-14.478-12.225-28.916-24.5,17.456,13.381,34.915,26.757c1.9,1.453,4.457-1.827,2.576-3.338-2.288-1.837-4.563-3.689-6.843-5.534,3.252,2.213,6.561,4.353,9.952,6.386,2,1.2,4.453-1.756,2.564-3.324q-22.329-18.531-44.455-37.325,24.354,20,48.653,40.07a2.154,2.154,0,0,0,3.519-1.861c1.154-.053,2.128-1.449,1.023-2.373q-21.7-18.147-42.016-37.866,25.179,20.535,51.187,40.029c1.571,1.177,3.589-1.106,2.729-2.584l2.4,1.926c1.96,1.574,4.773-1.085,2.821-2.821q-17.25-15.332-34.2-30.992,17.993,14.564,35.991,29.122c2,1.617,4.8-1,2.891-2.891q-7.964-7.884-16.079-15.606,15.64,11.841,31.555,23.32c1.349.973,2.894-.258,3.092-1.623,1.493,1.11,2.97,2.24,4.471,3.34,2.046,1.5,4.407-1.738,2.668-3.458q-3.216-3.177-6.456-6.328,3.426,2.9,6.853,5.8a2.332,2.332,0,0,0,3.752-1.264l2.474,2.129c2.087,1.8,5.048-1.059,3.059-3.058l-4.324-4.346q2.247,1.778,4.5,3.543c1.878,1.461,4.4-.415,3.689-2.266l4.419,4.023a2.241,2.241,0,0,0,3.168-3.168q-4.764-5.355-9.609-10.634l13.367,12.124a2.281,2.281,0,0,0,3.773-2.218A2.555,2.555,0,0,0,215.054,238c.778.807,1.565,1.605,2.342,2.413a2.047,2.047,0,0,0,3.385-.721c.431.534.871,1.06,1.3,1.6,1.107,1.386,3.575-.491,2.48-1.913-8.076-10.481-16.608-20.51-25.474-30.212q8.52,7.647,17.1,15.227c7.063,6.228,14.164,13.723,23.725,15.73,2.063.433,4.048-1.957,2.8-3.7,1.733,1.011,3.467,2.022,5.225,3,2.247,1.246,4.749-1.775,2.8-3.63q-12.927-12.3-26.182-24.259,16.268,12.084,33.147,23.318c2.211,1.467,4.92-1.962,2.865-3.714q-8.5-7.251-17.024-14.5,12.27,8.885,24.94,17.206c2.195,1.441,4.759-1.864,2.813-3.646l-7.354-6.736c.484.311.963.63,1.449.939,2.275,1.445,5-1.969,2.918-3.782q-6.882-5.986-13.753-11.987,8.441,6.66,16.983,13.194c2.252,1.714,4.781-1.893,2.942-3.813q-4.753-4.963-9.6-9.834,11.171,9.047,22.561,17.815l-.863-.156a2.419,2.419,0,0,0-1.854,4.4q3.216,2.328,6.433,4.657c1.95,1.418,3.826-.813,3.369-2.71l1.648.3a2.382,2.382,0,0,0,2.86-1.567c.8.689,1.6,1.366,2.393,2.057,1.632,1.424,4.007-.89,2.4-2.4-10.29-9.68-20.9-19-31.677-28.131q19.218,15.354,39.305,29.576c2.26,1.6,4.787-1.881,2.907-3.767q-18.49-18.544-37.469-36.572c16.2,13.082,32.656,25.819,49.232,38.423,2.085,1.585,4.72-1.879,2.795-3.622q-36.5-33.066-73.251-65.913a2.4,2.4,0,0,0-.379-2.648q-2.085-2.43-4.182-4.849a2.467,2.467,0,0,0,2.164-4.108q-1.8-2.014-3.607-4.031a2.608,2.608,0,0,0,.968-4.185Q218.746,106.7,186.882,72.619c21.141,21.662,43.849,41.976,62.717,65.673,1.12,1.407,3.59-.472,2.514-1.939-24.978-34.037-58.708-60.407-85.238-93.006,27.707,25.121,54.46,51.333,79.925,78.71,2.033,2.186,5.221-1.054,3.261-3.261Q234.5,101.28,218.913,83.787q13.486,13.458,26.966,26.922c2.2,2.2,5.139-1.009,3.322-3.322q-8.022-10.209-16.045-20.419,5.7,5.386,11.4,10.77c2.317,2.184,5.328-1.037,3.419-3.419-.669-.835-1.346-1.663-2.017-2.5,1.784.458,3.957-1.664,2.7-3.512q-8.876-12.989-18.432-25.47l14,13.993c2.126,2.126,5.128-1.017,3.251-3.25l-5.189-6.173,6.861,7.032c2.126,2.178,5.067-1,3.263-3.262L236.217,50.86l20.629,20.629c2.154,2.154,5.141-1.015,3.281-3.281L248.611,54.173q8.888,8.889,17.774,17.779c2.2,2.194,5.32-1.059,3.363-3.363L249.673,44.946l25.351,23.487c2.273,2.106,5.31-1.041,3.359-3.36q-6.805-8.086-13.711-16.086L281.323,64.4a2.391,2.391,0,0,0,3.379-3.379l-.565-.638q3.284,2.956,6.6,5.879a2.4,2.4,0,0,0,3.395-3.4q-7.88-9.368-15.761-18.733,9.472,9.093,18.948,18.183c1.884,1.809,5.5-.659,3.783-2.919q-5.715-7.542-11.431-15.085l20.142,20.864c1.885,1.952,5.454-.638,3.842-2.964q-6.139-8.862-12.53-17.538Q310,53.828,318.89,62.973c2,2.061,5.226-.56,3.9-3.01q-3.45-6.381-7.332-12.491,7.809,7.854,15.617,15.707c1.935,1.945,5.609-.66,3.918-3.023-2.376-3.32-4.821-6.586-7.3-9.827q4.947,4.325,9.975,8.558a2.783,2.783,0,0,0-.693,4.861c.207.144.408.3.615.444a2.5,2.5,0,0,0-.006,3.5l17.473,18.95L341.419,76.411c-2.4-1.8-4.915,1.957-3.077,3.988q7.838,8.666,15.68,17.324L343.41,89.259a2.464,2.464,0,0,0-3.483,3.483L353.959,109.4q-6.4-5.514-12.814-11.025c-2.34-2.014-5.622,1.158-3.425,3.426q10.746,11.089,20.855,22.752l-9.921-8.823a2.413,2.413,0,0,0-3.411,3.411q11.628,13.74,23.254,27.483a265.962,265.962,0,0,1-20.554-18.17c-2.239-2.2-5.3,1.044-3.379,3.379L363.755,155.2q-8.68-7.8-16.9-16.11c-2.193-2.22-5.175,1.018-3.339,3.339l24.2,30.6q-11.781-10.315-22.683-21.6c-1.786-1.851-5.273.657-3.66,2.824q9.844,13.227,19.692,26.454Q349.532,168.632,338,156.552c-2.062-2.16-5.087,1.01-3.231,3.232q14.228,17.03,27.551,34.769-17.4-18.066-34.719-36.2c-2.022-2.119-5.123,1.039-3.2,3.2q9.856,11.028,19.664,22.1-12.98-12.252-26.307-24.137c-2.16-1.924-5.336,1.2-3.2,3.2a432.952,432.952,0,0,1,34.506,36.177l-40.213-40.4c-2.062-2.072-5.164,1.064-3.2,3.2q6.446,6.984,12.894,13.963L302.029,159.81a2.187,2.187,0,0,0-3.091,3.091q18.368,20.195,35.978,41.052L286.8,160.161a2.178,2.178,0,0,0-3.406,2.628,71.372,71.372,0,0,0,10.2,14.075c-5.862-5.007-11.86-9.849-17.821-14.635-2.047-1.644-4.991,1.173-2.937,2.937q16.442,14.131,32.838,28.314a161.415,161.415,0,0,1,22.064,26.229c-20.91-18.452-41.426-37.345-61.341-56.872a1.494,1.494,0,0,0-2.111,2.111c22.7,22.83,46.04,45.021,70.266,66.231a2.079,2.079,0,0,0,3.25-2.508,123.617,123.617,0,0,0-9.776-15.9q9.188,7.932,18.378,15.861c2.087,1.8,5.076-1.088,3.06-3.06l-33.593-32.849c-1.758-1.72-3.57-3.43-5.4-5.148q22.074,20.092,44.146,40.185a2.175,2.175,0,0,0,3.074-3.075q-10.86-13.4-22.028-26.55L367.8,228.955a2.219,2.219,0,0,0,3.713-1.128l.432.434c1.755,1.762,5.076-.593,3.55-2.739q-7.032-9.885-14.6-19.354,8.929,8.815,17.687,17.805c1.91,1.965,4.554-.544,3.52-2.678,1.779.681,4.111-1.372,2.809-3.245q-8.154-11.724-16.684-23.174,7.741,8.121,15.482,16.241C385.469,212.963,388.923,210.462,387.332,208.321ZM199.587,225.883q-5.728-6.072-11.634-11.971-12.869-14.012-26.235-27.551-27.046-27.358-56.113-52.6c-1.651-1.436-4.507-.092-3.834,2.232a31.328,31.328,0,0,0,5.5,10.516,2.09,2.09,0,0,0-.565,3.485l27.629,25.06q13.918,13.059,27.356,26.615l-53.777-48.92c-2.1-1.911-5.189,1.131-3.133,3.133l4.468,4.352a2.222,2.222,0,0,0-.945,3.613q18.362,19.929,38.207,38.38l3.75,3.767q-23.4-20.142-46.8-40.285c-2.1-1.805-4.992,1.008-3.062,3.062,1.223,1.3,2.457,2.588,3.693,3.876-1.971-.393-3.957,1.962-2.1,3.568q24.817,21.5,48.743,44-5.6-4.591-11.121-9.285-20.876-19.186-41.776-38.347c-2.087-1.911-5.151,1.111-3.12,3.119q21.168,20.933,43.916,40.129l4.651,4.249q-27.141-20.588-53.38-42.331c-2.064-1.71-5.051,1.225-2.972,2.972q14.645,12.309,28.868,25.093Q98,191.471,80.235,177.1c-1.944-1.574-4.692,1-2.81,2.81q12.91,12.441,26.035,24.658L71.351,178.8c-1.917-1.539-4.622.928-2.941,2.7-1.09-.931-2.186-1.855-3.273-2.79a1.937,1.937,0,0,0-2.738,2.737q3.8,4.039,7.669,8.009Q56.54,177.328,43.006,165.205q4.847,3.769,9.6,7.666c2.123,1.745,5.174-1.162,3.073-3.072L37.913,153.647q5.341,3.8,10.681,7.606c1.913,1.36,4.106-1.615,2.475-3.208q-5.19-5.07-10.365-10.155,1.693,1.374,3.387,2.747a2.083,2.083,0,0,0,2.944-2.944q-9.343-10.563-18.679-21.134,8.811,7.46,17.626,14.917c2.036,1.726,4.837-.973,2.962-2.962Q37.573,126.45,26.2,114.386q9.6,7.823,18.867,16.055a2.179,2.179,0,0,0,3.122-.216c.472.39.935.79,1.41,1.178,1.428,1.164,3.472-.769,2.065-2.065q-14.409-13.267-27.951-27.42,16.314,12.372,32.529,24.867c1.823,1.408,4.1-1.626,2.449-3.173q-8.658-8.109-17.348-16.185,13.436,10.257,26.869,20.517c1.9,1.454,4.306-1.713,2.555-3.312q-12.269-11.2-24.443-22.5,14.965,11.948,29.921,23.908c2.038,1.632,4.91-1.033,2.94-2.94q-6.716-6.5-13.437-13l19.355,16.913c2.009,1.756,4.892-1.043,2.958-2.958Q62.638,98.875,37.183,73.725q30.477,25.676,59.7,52.8a2.022,2.022,0,0,0,2.19.429q58.326,51.642,112.62,107.591A57.208,57.208,0,0,1,199.587,225.883ZM123.541,155.99a89.371,89.371,0,0,1-10.436-9.474Q118.354,151.22,123.541,155.99Zm85.736,70Q170.019,185.767,128.6,147.74c17.186,14.973,34.16,30.176,50.394,46.171C189.475,204.232,199.616,214.9,209.277,225.986ZM77.167,44.612q-1.6-2.56-3.091-5.2c12.6,7.109,22.006,19.17,31.571,29.762q18.367,20.337,37.632,39.84,11.809,11.953,23.956,23.569Q154.464,121.61,141.7,110.607c-11.731-12.117-23.365-24.314-35.071-36.368Q92.078,59.249,77.167,44.612Zm47.869,38.213c32.866,33.972,69,64.846,103.608,97.033q5.776,5.371,11.5,10.805A1240.68,1240.68,0,0,1,125.036,82.825ZM92.642,80.3Q79.363,66.762,66.668,52.676c8.14,7.236,15.695,15.169,23.261,23.016,13.522,14.025,27.078,28.017,40.838,41.81Q111.337,99.267,92.642,80.3Zm15.765,7.21q3.995,3.641,8.076,7.209,9.159,8.676,18.456,17.2,4.653,4.278,9.318,8.544c23.042,23.643,46.552,46.792,71.982,67.923q9,7.482,18.331,14.554l7.175,6.554C193.4,173.518,150.308,130.779,108.407,87.511Zm75.67,42.21q-27.4-26.181-53.82-53.352-3.776-3.867-7.528-7.756Q114.277,58.542,106.546,47.9,141.286,81.529,176,115.19c24.12,23.371,48.278,46.746,73.738,68.658C227.752,165.905,205.476,148.3,184.077,129.721Zm101.876,77.212c-51.364-40.369-97.582-86.648-144.585-132.06l-.363-.351c41.689,37.1,83.4,74.19,124.029,112.434Q275.566,196.87,285.953,206.933Zm-40.477-49.421q14.358,12.938,28.715,25.878-23.55-19.284-46.459-39.347A151.9,151.9,0,0,0,245.476,157.512Zm-55.2-64.824q6.919,7.275,13.758,14.631-8.578-8.124-17.048-16.366c-19.11-18.631-37.819-37.705-55.921-57.324,3.933,2.668,7.342,6.835,10.366,9.764q8.2,7.947,16.3,16Q174.231,75.818,190.278,92.688Z" style="fill: #33b1e8"/>
        <path d="M345.706,136.815c-11.739-11.509-23.464-23.041-34.91-34.84q12.366,10.583,24.249,21.72c2.407,2.257,5.949-1.261,3.629-3.628L321.21,102.248q4.32,3.762,8.524,7.661c2.458,2.285,6.071-1.294,3.694-3.693l-3.791-3.828c1.136.858,2.265,1.725,3.406,2.578,2.541,1.9,5.145-2.053,3.236-4.195l-10.958-12.3,7.978,5.709c2.543,1.819,5.383-2.117,3.274-4.244l-2.211-2.23a2.786,2.786,0,0,0,.294-4.065l-2.1-2a2.557,2.557,0,0,0,.328-3.121c-.479-.749-.982-1.477-1.485-2.2l.349.149a2.754,2.754,0,0,0,3.381-4.238,3.271,3.271,0,0,0,1.378-4.472c-1.445-3.253-6.593-4.6-9.7-5.414-2.885-.751-4.274,2.548-2.678,4.6l.41.527-.792-.337c-2.145-.913-4.4.788-4.128,2.734a2.5,2.5,0,0,0-2.117.576l-1.627-1.253c-2.09-1.607-4.471.994-3.926,3.128l-3.278-2.341c-2.6-1.855-5.188,2.059-3.257,4.222q4.021,4.5,8.042,9.011-6.939-5.487-13.794-11.08c-2.585-2.117-6.192,1.274-3.742,3.741l.036.036c-.748-.527-1.489-1.061-2.241-1.582-2.467-1.709-5.151,2.017-3.139,4.068l2.155,2.195q-3.25-2.565-6.532-5.091l-.01-.011,0,0c-.171-.132-.34-.267-.512-.4-2.4-1.844-4.872,1.953-3.077,3.988q4.416,5.007,8.945,9.905-10.179-8.529-20.517-16.868A2.47,2.47,0,0,0,267.53,75.6c8.82,10.261,17.9,20.284,27.14,30.161q-18.378-16.318-36.755-32.637c-2.323-2.063-5.635,1.177-3.433,3.433q3.76,3.853,7.549,7.68-2.123-1.656-4.259-3.294l0,0h0c-.159-.122-.316-.246-.475-.368-2.137-1.633-4.722,1.868-2.843,3.685q2.22,2.145,4.446,4.285c-.7-.306-1.4-.609-2.123-.882-2.35-.9-3.608,2.294-2.251,3.868q8.24,9.558,16.707,18.912c-5.991-5.356-12.339-10.287-19.535-13.385-2.191-.943-4.431,1.489-2.645,3.428q8.427,9.148,17.132,18.028l-8.771-7.2c-1.706-1.4-4.891.47-3.346,2.582a228.113,228.113,0,0,0,16.13,19.483l-11.357-9.071a2.031,2.031,0,0,0-2.871,2.871q4.575,5.74,9.444,11.217c-1.524-1.051-3.045-2.1-4.586-3.132-1.925-1.284-3.729,1.466-2.351,3.047q5.29,6.074,10.6,12.133-4.2-2.554-8.411-5.1c-1.741-1.052-3.833,1.5-2.222,2.88,1.989,1.7,3.877,3.486,5.693,5.34l-2.929-1.439a1.8,1.8,0,0,0-2.171,2.815c.891.939,1.8,1.862,2.694,2.8-1.356-.218-2.456.3-2.786,2.487-.417,2.77,2.614,3.338,4.19,1.709,1.187.734,2.368,1.544,2.409,1.567a4.518,4.518,0,0,0,3,.57,1.706,1.706,0,0,0,1.19-2.872c-.489-.533-.986-1.056-1.476-1.588l2.366,1.172a1.819,1.819,0,0,0,2.194-2.843c-.487-.618-1-1.209-1.5-1.811q3.027,1.84,6.052,3.685c1.872,1.14,3.566-1.37,2.241-2.9q-3.987-4.613-7.962-9.235,5.826,4.335,11.474,8.915c1.956,1.588,4.744-1.031,2.829-2.829q-6.5-6.107-12.578-12.614,11.523,9.242,23.046,18.482c2.04,1.637,4.924-1.046,2.944-2.944C289.593,147.311,279.8,137.9,270.8,127.8Q289.15,142.892,307.5,157.98c2.1,1.731,5.138-1.174,3.043-3.043q-24.2-21.6-46.645-45.03c6.8,5.51,13.027,12.007,19.277,17.643q16.76,15.112,33.518,30.227c2.145,1.934,5.276-1.14,3.19-3.19q-27.972-27.495-53.907-56.943c9.925,6.679,18.375,16.29,26.79,24.233L330.081,157.1c2.19,2.067,5.491-1.214,3.313-3.313q-9.36-9.02-18.715-18.043,10.131,9.559,20.39,18.985c2.252,2.068,5.614-1.266,3.367-3.367q-2.038-1.908-4.079-3.812l5.695,5.061c2.345,2.084,5.7-1.2,3.468-3.467-17.1-17.34-34.189-34.713-50.7-52.614Q318,117.854,342.161,140.36C344.516,142.555,348.02,139.084,345.706,136.815Z" style="fill: #d9d9d9"/>
        <g>
          <path d="M386.776,197.588c-4.243-51.362-9.036-102.626-15.03-153.816q-1.125-9.6-2.331-19.183a1.538,1.538,0,0,0-.488-.954c1.487-8.794-3.169-18.262-11.564-21.812C351.4-.7,344.691,0,338.408.418q-10.9.732-21.775,1.7C286.868,4.726,257.184,8.255,227.5,11.6Q137.832,21.69,48.172,31.813c-8.412.939-16.822,1.9-25.238,2.8-3.985.426-7.974.822-11.955,1.283-2.748.318-5.65.685-7.872,2.48C-1.506,42.1.274,49.453.659,54.505c.49,6.43.881,12.9,1.667,19.3.9,25.413,3.056,50.808,5.275,76.134q3.369,38.456,7.68,76.818,1.083,9.59,2.235,19.171c.585,4.866.613,10.551,3.671,14.641,4.926,6.591,14.481,5.854,21.683,4.876,25.755-3.5,51.5-7.026,77.288-10.293q76.815-9.732,153.875-17.375,38.361-3.8,76.768-7.1,9.6-.828,19.207-1.623c4.439-.367,9.608-.267,13.492-2.785,3.575-2.318,4.654-6.37,4.646-10.422C388.134,209.784,387.276,203.63,386.776,197.588Zm-6.727,26.374c-5.008,1.968-11.371,1.552-16.665,2q-37.091,3.114-74.137,6.734-73.761,7.2-147.325,16.268-36.18,4.461-72.3,9.386-9.216,1.267-18.428,2.566c-5.307.743-10.692,1.837-16.069,1.816-4.622-.018-9.786-1.028-12.1-5.51-1.345-2.6-1.5-5.805-1.843-8.645q-.564-4.624-1.112-9.252C14.232,190.176,9.708,140.906,6.159,91.545c-.372-5.173-.806-10.34-1.256-15.506-.045-5.858-.5-11.719-.913-17.562-.233-3.31-.5-6.619-.7-9.93-.194-3.175-.339-6.783,2.922-8.481,2.7-1.405,6.465-1.291,9.414-1.631,3.764-.435,7.526-.88,11.291-1.306,6.64-.752,13.283-1.478,19.925-2.217q41.507-4.617,83.02-9.2c55-6.083,109.977-12.473,165.025-18.066,15.144-1.539,30.309-2.911,45.5-3.889,6.939-.447,14.717-.921,20.174,4.2a17.117,17.117,0,0,1,4.9,16.645,1.531,1.531,0,0,0,1.209,1.92c5.533,48.546,10.568,97.138,14.633,145.831q1.551,18.585,2.818,37.188C384.464,214.5,385.884,221.67,380.049,223.962Z" style="fill: #1d1d1b"/>
          <path d="M55.761,50.948c-.531-1.182-2.459-.574-2.405.651.129,2.918.555,5.673.564,8.514q-3.8-4.216-7.616-8.422a1.516,1.516,0,0,0-2.563,1.062q.735,6.957,1.755,13.873c.188,1.263,2.288.964,2.226-.3q-.228-4.618-.605-9.22,3.492,3.909,6.991,7.811a1.549,1.549,0,0,0,2.575-.68C57.32,59.905,57.6,55.031,55.761,50.948Z" style="fill: #1d1d1b"/>
          <path d="M66.261,54.234a1.579,1.579,0,0,0-1.512-.317,5.944,5.944,0,0,0-6.478,3.913A6.109,6.109,0,0,0,61.052,65.2a5.493,5.493,0,0,0,7.2-2.553A6.926,6.926,0,0,0,66.261,54.234Zm-.728,6.453c-.548,1.5-2.368,2.31-3.557,1.038-1.73-1.851-.063-4.4,1.852-5.692a1.82,1.82,0,0,0,.263.371C65.128,57.521,66.115,59.1,65.533,60.687Z" style="fill: #1d1d1b"/>
          <path d="M87.865,60.041C87.5,55.974,87.723,51,86.256,47.173c-.369-.962-2.058-1.271-2.276,0a30.5,30.5,0,0,0,.373,9.2,52.5,52.5,0,0,1-7.161-8.013c-.744-1.028-2.912-.864-2.726.738.517,4.471,1.041,8.99,2,13.391a.988.988,0,0,0,1.932-.261c-.03-2.76-.23-5.526-.494-8.283a57.23,57.23,0,0,0,7.386,7.167C86.187,61.838,88,61.482,87.865,60.041Z" style="fill: #1d1d1b"/>
          <path d="M100.611,59.209c-.545-2.572-1.456-5.106-2.2-7.63a1.38,1.38,0,0,0-1.68-1.025C91.681,49.4,85.963,58.381,90.72,61.668c2.025,1.4,4.928.681,6.554-1.015a5.707,5.707,0,0,0,.534-.659A1.457,1.457,0,0,0,100.611,59.209Zm-4.949-2.1c-.3,1.083-1.311,2.284-2.6,2.051-2.06-.372.208-5.058,2.543-6.357A9.845,9.845,0,0,1,95.662,57.112Z" style="fill: #1d1d1b"/>
          <path d="M115.5,47.961c-2.406-.079-3.549,1.276-4.139,3.094a4.985,4.985,0,0,0-3.719-1.81,3.884,3.884,0,0,0-3.971,2.242c-.053-.3-.1-.6-.156-.9-.185-1.1-1.862-.79-1.886.255a42.139,42.139,0,0,0,.849,8.307c.313,1.754,2.906,1.23,2.983-.4.038-.809.075-1.617.156-2.423.2-1.965-.134-2.716,1.956-3.112,2.039-.387,2.265.514,2.61,2.424a15.028,15.028,0,0,1,.112,3,1.462,1.462,0,0,0,2.859.387c.408-1.809-.3-5.544.832-6.934l2.226-.832a7.267,7.267,0,0,1,1.436,2.811,11.724,11.724,0,0,1,.341,4.159c-.121,1.861,2.774,1.853,2.9,0C121.11,54.793,120.063,48.111,115.5,47.961Z" style="fill: #1d1d1b"/>
          <path d="M127.017,47.687c-3.87-.3-4.851,3.988-4.353,7.043a4.488,4.488,0,0,0,2.85,3.771,3.318,3.318,0,0,0,3.8-1.309.925.925,0,0,0-1.446-1.116,1.256,1.256,0,0,1-1.946-.339c-.044-.059-.081-.123-.119-.186a4.756,4.756,0,0,0,4.678-1.862C132.254,51.02,129.9,47.911,127.017,47.687Zm1.146,4.569c-.691.966-1.894.591-2.76.216l-.023-.008c.085-1.018.414-2.11,1.593-1.975C127.829,50.588,128.789,51.38,128.163,52.256Z" style="fill: #1d1d1b"/>
          <path d="M148.589,53.206a7.019,7.019,0,0,0-4.311-2.61c1.621-.97,2.859-2.559,2.677-4.258a4.2,4.2,0,0,0-2.723-3.3,6.833,6.833,0,0,0-4.937.369c-.728-1.043-2.718-.814-2.59.724.343,4.123.807,8.244,1.442,12.332a.839.839,0,0,0,.229.472,1.14,1.14,0,0,0,.884,1.222c3.167.676,7.007-1.156,9.329-3.209A1.265,1.265,0,0,0,148.589,53.206Zm-6.44-8.487c1,.07,2.572.767,2.324,2.036-.358,1.834-3.142,1.759-4.575,2.316q-.115-2.007-.273-4.008A7.693,7.693,0,0,1,142.149,44.719Zm-2,10.868q-.027-1.6-.092-3.2a.638.638,0,0,0,.5.051,5.283,5.283,0,0,1,5.374,1.331,12.351,12.351,0,0,1-2.619,1.244A20.7,20.7,0,0,1,140.144,55.587Z" style="fill: #1d1d1b"/>
          <path d="M155.114,40.682A1.337,1.337,0,0,0,152.7,41a69.57,69.57,0,0,0-2.443,15.17c-.072,1.279,1.8,1.214,1.951,0,.183-1.506.424-3,.693-4.491.847.053,1.694.108,2.541.15a7.959,7.959,0,0,0,1.964-.005,26.347,26.347,0,0,0,.909,2.746,1.147,1.147,0,0,0,2.241-.3C160.571,49.559,157.718,44.445,155.114,40.682Zm.332,9.173c-.742.036-1.484.084-2.226.131q.546-2.713,1.242-5.4a30.3,30.3,0,0,1,1.72,3.433c.244.58.447,1.172.634,1.769C156.37,49.78,155.912,49.832,155.446,49.855Z" style="fill: #1d1d1b"/>
          <path d="M175.9,40.088c-.167-1.668-2.674-1.746-2.66,0,.024,3.154.244,6.309.456,9.46a35.441,35.441,0,0,1-6.889-9.149,1.373,1.373,0,0,0-2.54.688,131.272,131.272,0,0,0,.655,13.782.858.858,0,0,0,1.715,0c.282-2.949.367-5.922.38-8.892a35.379,35.379,0,0,0,7.279,7.7c.838.651,2.363.336,2.3-.953C176.391,48.518,176.316,44.283,175.9,40.088Z" style="fill: #1d1d1b"/>
          <path d="M192.684,49.542c-2.187-1.764-5.48-2.287-8.342-2.4.695-1.049,1.384-2.1,2.092-3.143,1.176-1.732,2.871-3.5,3.413-5.538.245-.918-.864-1.965-1.734-1.333-1.718,1.247-2.707,3.361-3.788,5.159-.594.987-1.166,1.984-1.727,2.988a48.235,48.235,0,0,0-.874-6.191,1.32,1.32,0,0,0-2.581.349c.1,4.49,1.143,9.251,1.986,13.657a.972.972,0,0,0,1.9-.258c-.056-1.137-.106-2.3-.165-3.471.086-.132.176-.261.262-.393a1,1,0,0,0,.114.022,19.473,19.473,0,0,1,4.428.912c1.329.45,2.538,1.2,3.889,1.571C192.6,51.758,193.622,50.3,192.684,49.542Z" style="fill: #1d1d1b"/>
          <path d="M324.866,45.115c-9.277.465-18.564,2.034-27.789,3.115q-13.567,1.592-27.146,3.1-27.487,3.054-55.01,5.768-54.382,5.364-108.882,9.46c-20.8,1.58-41.773,2.264-62.5,4.606-1.039.117-1.1,1.676,0,1.668,18.616-.129,37.289-1.97,55.855-3.273q27.251-1.913,54.476-4.187,55.113-4.639,110.1-10.636,15.237-1.66,30.461-3.427c10.216-1.184,20.653-1.915,30.746-3.905A1.17,1.17,0,0,0,324.866,45.115Z" style="fill: #1d1d1b"/>
          <path d="M101.342,131.029a.926.926,0,0,0-.611-.694c-1.257-4.426-5.482-6.127-9.809-6.067-7.179.1-14.477,1.017-21.636,1.595-4.945.4-12.129-.207-16.392,2.8a7.18,7.18,0,0,0-3.065,5.536.685.685,0,0,0-.46.6c-.308,6.437.585,12.886,1.452,19.254.792,5.814,1.394,12,3.052,17.65,1.211,4.123,4.044,6.3,8.3,6.586,5.876.4,12.276-.958,18.1-1.683,5.609-.7,11.609-1.045,17.075-2.5,3.828-1.015,6.1-3.332,6.753-7.294C105.986,155.262,104.111,142.293,101.342,131.029Zm-1.034,5.167a104.85,104.85,0,0,1,1.612,11.682c-3.556.364-7.111.988-10.661,1.419a.66.66,0,0,0-.528.378q-.1-.738-.189-1.471c-.468-3.776-.974-7.548-1.543-11.309,3.639-.281,7.362-.12,10.967-.593A1.1,1.1,0,0,0,100.308,136.2Zm-1.469-5.11a.9.9,0,0,0,.5.634c.223.922.419,1.847.617,2.771-3.655-.324-7.553.413-11.173,1.037-.468-3-.97-6-1.545-8.991C91.747,126.1,97.508,125.653,98.839,131.086Zm-46.91,11.295c-.153-1.115-.308-2.231-.481-3.343a.462.462,0,0,0,.406-.6c-2.2-6.52,3.062-8.793,9.072-9.676.138,3.734.36,7.463.641,11.188a19.455,19.455,0,0,0-4.851.9c-1.579.377-3.385.538-4.731,1.484A.548.548,0,0,0,51.929,142.381Zm.144,1.034a.479.479,0,0,0,.057.021c1.589.306,3.2-.225,4.773-.524A23.413,23.413,0,0,0,61.71,141.8q.513,6.308,1.24,12.6c-1.721-.159-3.534.48-5.246.667a37.136,37.136,0,0,1-4.166.2C53.037,151.309,52.6,147.355,52.073,143.415Zm12.112,32.443c-3.258.115-6.3-.442-7.656-3.8a35.39,35.39,0,0,1-1.5-6.86c-.507-2.778-.914-5.572-1.283-8.372,3.058.383,6.878.571,9.384-.874.765,6.5,1.659,12.987,2.628,19.454a1.088,1.088,0,0,0,.122.366Q65.033,175.827,64.185,175.858Zm14.162-1.469c-3.5.415-7.039.936-10.573,1.243a1.192,1.192,0,0,0,.184-.832c-2.136-15.378-3.625-30.827-5.433-46.244,3.8-.411,7.668-.38,9.966-.594,4.454-.416,8.9-.892,13.357-1.293.763,7.623,1.7,15.228,2.552,22.84s.907,15.664,2.474,23.152a1.152,1.152,0,0,0,.035.113C86.732,173.385,82.536,173.891,78.347,174.389Zm21.791-4.248c-1.475,1.428-3.753,1.774-5.7,2.092-.532.087-1.066.163-1.6.245a.756.756,0,0,0,.012-.085c.254-7.181-1.053-14.785-2.025-22a.6.6,0,0,0,.431.161,63.162,63.162,0,0,0,10.806-.753c.156,2.47.216,4.95.2,7.435-1.555.333-3.1.716-4.642,1.1a13.01,13.01,0,0,0-4.561,1.648c-.25.174-.268.652.094.719a12.278,12.278,0,0,0,4.619-.329c1.486-.273,2.975-.537,4.454-.847-.028.957-.066,1.915-.122,2.874C101.96,164.9,102.083,168.259,100.138,170.141Z" style="fill: #1d1d1b"/>
          <path d="M69.386,215.675a40.644,40.644,0,0,0-3.662-2.889,37.766,37.766,0,0,0,1.916-5.8,1.174,1.174,0,0,0-2.262-.624q-.872,2.443-1.754,4.853c-.345-.26-.689-.523-1.036-.781l-1.154-.858-.577-.429a1.108,1.108,0,0,0-.14-.112.556.556,0,0,0,.073-.678c-.765-1.465-2.6.148-1.738,1.548.81,1.319,2.578,2.391,3.8,3.4-.713,1.914-1.441,3.824-2.2,5.74-.346.869.97,1.307,1.438.606a39.53,39.53,0,0,0,2.669-4.7,36.018,36.018,0,0,0,3.206,2.575C69.064,218.274,70.353,216.577,69.386,215.675Z" style="fill: #1d1d1b"/>
          <path d="M83.465,204.876c.354-1.207-1.236-1.692-1.9-.8a28.915,28.915,0,0,0-2.612,5.05q-1.533-1.619-3.069-3.237c-.787-.83-1.938.384-1.235,1.235q1.666,2.019,3.333,4.038c-.587,1.226-1.171,2.453-1.736,3.689-.516,1.13,1.083,2.126,1.7.993q.762-1.4,1.5-2.814a6,6,0,0,0,2.833,2.513.894.894,0,0,0,1.084-1.084c-.211-1.409-1.665-2.6-2.768-3.64.114-.221.23-.443.345-.664A30.756,30.756,0,0,0,83.465,204.876Z" style="fill: #1d1d1b"/>
          <path d="M98.848,213.787c-.42-1.545-1.925-2.71-3.058-3.886a32.275,32.275,0,0,0,2.51-5.658c.354-1.141-1.206-1.653-1.827-.77a28.455,28.455,0,0,0-2.432,4.348c-.937-1.189-1.83-2.411-2.735-3.629a.937.937,0,0,0-1.617.945A39.582,39.582,0,0,0,93,210.171c-.6,1.414-1.155,2.826-1.718,4.147-.424.993.933,1.873,1.5.873.546-.971,1.134-1.975,1.723-3a6.842,6.842,0,0,0,3.185,2.755A.954.954,0,0,0,98.848,213.787Z" style="fill: #1d1d1b"/>
          <path d="M115.2,213.028a24.9,24.9,0,0,0-4.1-6.136l-.075-.093c.011-.028.025-.054.036-.082.793-1.9,1.958-4.066,1.917-6.152a1.024,1.024,0,0,0-1.892-.512,16.893,16.893,0,0,0-1.728,4.707,14.91,14.91,0,0,0-3.723-3.343.627.627,0,0,0-.85.851,34.073,34.073,0,0,0,3.707,4.958q-.834,2.216-1.8,4.377c-.492,1.1,1.073,2.069,1.644.961s1.1-2.209,1.616-3.33a44.009,44.009,0,0,0,3.359,4.9C114.023,214.954,115.617,214.082,115.2,213.028Z" style="fill: #1d1d1b"/>
          <path d="M144.643,209.372c-.922-1.446-1.941-2.894-3.016-4.32a17.521,17.521,0,0,0,2.073-8.5.878.878,0,0,0-1.716-.232c-.717,2.155-.871,4.469-1.609,6.646-.037.108-.083.212-.121.32-1.41-1.774-2.879-3.5-4.329-5.111-.557-.621-1.581.181-1.149.887,1.361,2.225,2.861,4.515,4.45,6.718a35.741,35.741,0,0,1-2.151,3.941c-.517.821.728,1.5,1.277.747.682-.934,1.381-1.985,2.042-3.109.857,1.13,1.733,2.228,2.63,3.265C143.789,211.507,145.269,210.355,144.643,209.372Z" style="fill: #1d1d1b"/>
          <path d="M160.537,194.768a.847.847,0,0,0-1.54-.649c-1.476,1.971-2.278,4.564-3.272,6.813-.138.314-.274.629-.412.943-1.124-1.6-2.2-3.236-3.229-4.9a.74.74,0,0,0-1.277.746A44.51,44.51,0,0,0,154.3,204.2q-.632,1.464-1.248,2.935c-.3.717.893,1.207,1.251.528.335-.636.66-1.276.989-1.915a11.812,11.812,0,0,0,3.306,3.735c.937.586,1.749-.53,1.378-1.378-.745-1.7-2.278-3.17-3.506-4.658q.633-1.252,1.262-2.506C158.731,198.944,160.012,196.948,160.537,194.768Z" style="fill: #1d1d1b"/>
          <path d="M170.916,201.775c-.014-.019-.029-.036-.043-.055.095-.227.187-.455.284-.682.9-2.081,2.2-4.083,2.769-6.279.187-.724-.776-1.377-1.315-.766a19.453,19.453,0,0,0-3.29,5.8q-1.389-1.649-2.916-3.179c-.782-.78-1.92.386-1.2,1.2a50.666,50.666,0,0,1,3.329,4.2c-.643,1.972-1.162,3.956-1.644,5.719a.827.827,0,0,0,1.594.44q.658-2.048,1.428-4.051c.805,1.416,1.49,3.012,2.772,3.977a.894.894,0,0,0,1.338-.768C173.87,205.256,172.125,203.38,170.916,201.775Z" style="fill: #1d1d1b"/>
          <path d="M193.184,205.367a1.068,1.068,0,0,0-.982-.747l-.2-.013a.641.641,0,0,0-.078.009,1.946,1.946,0,0,1-.369-.408,15.065,15.065,0,0,0-1.162-1.318l-1.914-2.172a21.605,21.605,0,0,0,1.849-5.879c.216-1.378-1.871-1.993-2.125-.586a36.049,36.049,0,0,1-1.2,4.8c-1.388-1.577-2.773-3.155-4.175-4.72-.678-.757-1.682.329-1.09,1.091,1.487,1.914,2.994,3.813,4.5,5.714a29.439,29.439,0,0,1-2.277,4.442c-.335.537.462,1.178.89.687a24.463,24.463,0,0,0,2.584-3.593c1.092,1.513,2.555,4.264,4.318,4.565a1.214,1.214,0,0,0,1.436-.815A1.311,1.311,0,0,0,193.184,205.367Z" style="fill: #1d1d1b"/>
          <path d="M219.119,201.654a19.338,19.338,0,0,0-2.607-4.61c-.037-.058-.072-.117-.109-.175a21.076,21.076,0,0,0,1.305-5.041c.1-1.022-1.4-1.31-1.863-.5a12.667,12.667,0,0,0-1.129,2.827c-.423-.67-.852-1.335-1.306-1.983a.772.772,0,0,0-1.332.779c.6,1.25,1.275,2.467,1.949,3.682-.552,1.889-1.074,3.787-1.608,5.681-.3,1.068,1.268,1.464,1.639.452.41-1.118.9-2.282,1.389-3.47a12.552,12.552,0,0,0,2.094,3.281A.951.951,0,0,0,219.119,201.654Z" style="fill: #1d1d1b"/>
          <path d="M236.621,201.65c-.826-2.027-2.622-3.636-3.89-5.417-.194-.273-.38-.553-.569-.83a19.46,19.46,0,0,0,1.687-5.548c.068-.948-1.217-1.138-1.672-.453a13.131,13.131,0,0,0-1.524,3.684c-.6-.976-1.189-1.964-1.76-2.957a.851.851,0,0,0-1.468.858c.8,1.522,1.65,3.007,2.53,4.478-.658,2.068-1.359,4.13-1.9,6.231-.221.853,1.109,1.5,1.482.625.649-1.518,1.216-3.07,1.779-4.623,1.09,1.776,2.121,3.864,3.806,5.107A1.032,1.032,0,0,0,236.621,201.65Z" style="fill: #1d1d1b"/>
          <path d="M247.058,195.544c1.528-2.71,2.632-5.746,2.335-8.365-.089-.779-1.248-1.35-1.672-.452-.906,1.919-1.1,4.126-1.877,6.119-.031.081-.071.156-.1.236-1-2.017-1.884-4.094-2.8-6.269-.265-.625-1.327-.3-1.276.346a23.149,23.149,0,0,0,2.726,8.73c-.672,1.209-1.419,2.376-2.218,3.528-.573.824.732,1.837,1.4,1.077a29.7,29.7,0,0,0,1.994-2.565c.4.633.809,1.246,1.233,1.828.937,1.286,3.1.053,2.161-1.263C248.254,197.52,247.632,196.538,247.058,195.544Z" style="fill: #1d1d1b"/>
          <path d="M268.124,197.312c-.786-1.825-2.627-3.263-3.9-4.774.106-.335.21-.671.321-1.005.7-2.11,1.776-4.21,1.957-6.434.071-.869-1.065-.966-1.481-.4-1.246,1.693-1.732,3.935-2.28,5.967a39.158,39.158,0,0,0-2.642-3.216c-.627-.659-1.467.177-1.162.9a24.5,24.5,0,0,0,3.1,5c-.414,1.657-.782,3.323-1.082,5.007a.756.756,0,0,0,1.457.4c.329-1.186.658-2.372,1-3.553a10.6,10.6,0,0,0,3.395,3.427A.969.969,0,0,0,268.124,197.312Z" style="fill: #1d1d1b"/>
          <path d="M298.264,194.319c-.709-1.968-2.526-3.543-3.8-5.247a17.807,17.807,0,0,0,1.119-5.946.925.925,0,0,0-1.809-.244c-.369,1.278-.566,2.6-.817,3.911-.925-1.5-1.783-3.036-2.594-4.592a.774.774,0,0,0-1.409.594,32.577,32.577,0,0,0,3.257,6.915,35.968,35.968,0,0,1-2.114,5.167c-.427.854.814,1.6,1.291.754.695-1.23,1.4-2.569,2.033-3.967a9.766,9.766,0,0,0,3.5,3.686C297.573,195.656,298.559,195.137,298.264,194.319Z" style="fill: #1d1d1b"/>
          <path d="M314.436,192.265c-.513-1.845-2.232-3.4-3.4-4.893-.239-.307-.481-.611-.72-.918a25.764,25.764,0,0,0,2.1-5.755.941.941,0,0,0-1.711-.721,18.98,18.98,0,0,0-1.977,4.448c-.671-.854-1.339-1.711-2.012-2.563-.625-.793-2,.254-1.409,1.087q1.3,1.847,2.611,3.687c-.706,1.871-1.4,3.747-2.09,5.623-.436,1.178,1.386,1.619,1.851.51q.853-2.033,1.7-4.069c1.1,1.557,2.078,3.582,3.706,4.6A.931.931,0,0,0,314.436,192.265Z" style="fill: #1d1d1b"/>
          <path d="M331.2,192.67c-1.055-2.09-3.14-3.795-4.511-5.715-.044-.062-.084-.126-.128-.188a39.119,39.119,0,0,0,1.087-4.117c.189-.941-1.239-1.715-1.668-.7-.344.813-.654,1.647-.942,2.493-.75-1.222-1.455-2.472-2.13-3.737-.641-1.2-2.288-.144-1.78,1.041a38.1,38.1,0,0,0,3,5.625c-.527,1.861-.989,3.744-1.472,5.578a.819.819,0,0,0,1.578.435c.448-1.259.922-2.536,1.38-3.823,1.16,1.676,2.471,3.549,4.195,4.5A1.024,1.024,0,0,0,331.2,192.67Z" style="fill: #1d1d1b"/>
          <path d="M345.159,190.1c-.908-1.871-2.545-3.42-3.678-5.18-.239-.371-.463-.748-.685-1.127a23.854,23.854,0,0,0,1.3-5.342c.1-1-1.414-1.339-1.862-.5a18.635,18.635,0,0,0-1.152,2.682q-.327-.64-.654-1.284a.87.87,0,0,0-1.583.667,29.261,29.261,0,0,0,1.427,3.346c-.488,1.908-.867,3.856-1.294,5.63a.866.866,0,0,0,1.669.46c.381-1.025.808-2.092,1.23-3.178l.008.015c1.082,1.791,2.256,3.876,3.98,5.107C344.705,191.987,345.53,190.861,345.159,190.1Z" style="fill: #1d1d1b"/>
          <path d="M341.94,108.142c-1.851-14.865-4-29.7-6.639-44.449l.031,0c1.148-.155.889-2.159-.276-2.04-14.921,1.52-29.808,3.538-44.7,5.31-14.234,1.694-28.461,3.347-42.634,5.493-.278-.867-1.872-.633-1.747.344,1.989,15.513,2.793,31.04,3.8,46.639.465,7.24,1.044,14.467,2.011,21.659.53,3.944,1.183,7.872,2,11.766.674,3.191,1.257,6.725,2.83,9.633-.293.438-.135,1.141.54,1.1,14.6-.92,29.119-2.555,43.666-4.021,7.051-.711,14.1-1.408,21.15-2.156,7.075-.751,14.411-1.119,21.388-2.53a.956.956,0,0,0-.253-1.87c-7.025.231-14.15,1.511-21.135,2.313-7.269.834-14.536,1.671-21.811,2.447-14.32,1.528-28.671,2.695-42.974,4.381-.063-3.068-.96-6.17-1.48-9.175q-1.05-6.066-1.782-12.177c-.938-7.727-1.543-15.5-2.058-23.264-.97-14.621-1.448-29.441-3.933-43.911,14.616-1.26,29.167-3.036,43.735-4.76,13.79-1.631,27.623-3.062,41.391-4.881,2.579,15.327,4.905,30.687,6.719,46.125,1.733,14.742,2.62,29.637,4.662,44.333.115.831,1.438.609,1.438-.194C345.87,138.907,343.834,123.348,341.94,108.142Z" style="fill: #1d1d1b"/>
          <path d="M71.588,233.856a1.19,1.19,0,0,0-2.276,0,24.164,24.164,0,0,0-.545,7.5,37.653,37.653,0,0,1-3.51-5.748,1.4,1.4,0,0,0-2.594.7c.32,3.546.636,7.09,1.01,10.631.149,1.407,2.3,1.476,2.251,0q-.084-2.429-.2-4.854a37.121,37.121,0,0,0,3.59,4.418,1.474,1.474,0,0,0,2.491-1.032C71.853,241.805,72.561,237.417,71.588,233.856Z" style="fill: #1d1d1b"/>
          <path d="M82.053,240.012a5.962,5.962,0,0,0-7.321-3.623.866.866,0,0,0,.46,1.669,4.071,4.071,0,0,1,4.446,2.341c.564,1.289.468,2.964-.911,3.675-.866.446-2.345.47-2.6-.7a2.3,2.3,0,0,1,1.472-2.317c.783-.368.484-1.5-.226-1.726-2.636-.857-4.457,2.161-4.065,4.486.469,2.776,3.5,3.9,5.963,3A5.133,5.133,0,0,0,82.053,240.012Z" style="fill: #1d1d1b"/>
          <path d="M93.833,235.217a3.918,3.918,0,0,0-3.427,1.161c-.828-1.524-1.955-2.709-3.615-2.2a3.7,3.7,0,0,0-2.206,2.329c-.316-.576-1.389-.64-1.5.14a21.3,21.3,0,0,0,.2,7.122,1.329,1.329,0,0,0,2.543,0q.412-1.638.8-3.281c.167-.719.279-2.751.85-3.249q-.351-.719.063.083.358.735.708,1.473c.353.748.693,1.5,1.034,2.255a4.011,4.011,0,0,0,.328.717c.964,1.609,3.188.2,2.46-1.438-.049-.111-.1-.235-.151-.362-.354-1.258,1.125-2.623,2.28-1.6.952.844.579,2.157.219,3.189-.394,1.131,1.075,1.716,1.841,1.072C98.861,240.438,97,235.705,93.833,235.217Z" style="fill: #1d1d1b"/>
          <path d="M106.888,238c1.047-2.855-.916-6.45-4.1-6.477-2.843-.024-5.022,2.561-5.179,5.243a.992.992,0,0,0-.063,1.283c.059.07.13.136.194.2a4.629,4.629,0,0,0,.277.828c1.427,3.139,5.75,4.529,8.5,2.325a.588.588,0,0,0-.412-1,9.99,9.99,0,0,1-2.2.041A3.659,3.659,0,0,0,106.888,238Zm-1.9-.857c-.7,2.339-3.156,1.191-5.037.229a3.357,3.357,0,0,1,2.5-3.668C104.305,233.362,105.47,235.533,104.992,237.138Z" style="fill: #1d1d1b"/>
          <path d="M127.886,236.192c-.149-1.751-1.951-2.633-3.543-2.7-1.288-.05-4.075,1.085-4.248-.967-.169-2,2.3-2.429,3.8-2.166a.8.8,0,0,0,.427-1.548c-1.95-.694-4.386-.508-5.741,1.241a4.009,4.009,0,0,0-.127,4.657c1.526,2.132,3.785,1.008,5.893,1.042,2.611.041.329,2.164-.86,2.551-1.355.441-2.579.046-3.934-.154a.921.921,0,0,0-.888,1.526C121.176,242.2,128.234,240.282,127.886,236.192Z" style="fill: #1d1d1b"/>
          <path d="M134.11,228.811a.826.826,0,0,0-1.232.707c.042,1.28.956,2.323,1.231,3.571a2.464,2.464,0,0,1-1.516,3.152c-2.842,1.033-4.217-2.736-2.276-4.544.468-.436-.156-1.284-.7-.9-3.321,2.342-1.8,7.822,2.411,7.714a4.563,4.563,0,0,0,4.216-2.933C136.965,233.5,136.081,229.962,134.11,228.811Z" style="fill: #1d1d1b"/>
          <path d="M142.6,227.487c-2.123-.42-3.821,1.368-4.4,3.284-.829,2.728.578,5.437,2.037,7.657.342.52,1.3.2,1.064-.449-.612-1.67-1.526-3.625-1.308-5.445s1.323-2.644,2.819-3.451A.882.882,0,0,0,142.6,227.487Z" style="fill: #1d1d1b"/>
          <path d="M154.486,230.389a4.571,4.571,0,0,0-3.8-3.141,4.686,4.686,0,0,0-4.554,3.184c-.972,2.463-.016,5.044.989,7.324.4.909,1.841.257,1.582-.667-.464-1.661-1.185-3.612-.636-5.334.408-1.277,1.844-2.73,3.218-1.757,1.943,1.376.739,4.241,1.871,5.9a.977.977,0,0,0,1.658,0C155.811,234.578,155.049,231.777,154.486,230.389Z" style="fill: #1d1d1b"/>
          <path d="M165.3,231.1c-1.077-3.064-4.446-4.2-7.367-4.632-.983-.146-1.442,1.281-.423,1.533a13.216,13.216,0,0,1,3.5,1.372,4.2,4.2,0,0,0-3.817,4.737,4.385,4.385,0,0,0,5.849,3.218C165.443,236.329,166.1,233.374,165.3,231.1Zm-2.077,2.518a1.826,1.826,0,0,1-3.173.945c-1.4-1.561.579-2.886,1.966-3.182a.841.841,0,0,0,.647-.592A3.186,3.186,0,0,1,163.22,233.613Z" style="fill: #1d1d1b"/>
          <path d="M176.328,226.665a4.387,4.387,0,0,0-4.177,1.669c-.87-1.481-2.223-2.454-4.226-1.649-3.573,1.436-.367,5.54-.828,7.969-.158.835,1.065,1.2,1.29.355a7.623,7.623,0,0,0-.122-3.548c-.158-.83-1.014-3.558,1.547-2.675.788.272,1.1,1.338,1.248,2.312a4.4,4.4,0,0,0,.181,1.612c.353,1.128,2.319,1,2.173-.3-.011-.094-.026-.195-.04-.294h0v-.006c-.023-.166-.051-.337-.083-.513-.1-1.7,1.6-3.328,3.311-2.387,1.434.787,1.541,2.375,1.108,3.768a1.114,1.114,0,0,0,2.028.855A5.069,5.069,0,0,0,176.328,226.665Z" style="fill: #1d1d1b"/>
          <path d="M190.961,226.166c-.919-3.091-4.935-3.43-7.326-2.019a4.707,4.707,0,0,0-1.476,7.148c1.862,2.194,5.423,2.7,7.513.567.632-.644-.221-1.87-1-1.3a3.133,3.133,0,0,1-2.778.355C188.7,231.015,191.9,229.306,190.961,226.166Zm-6.616.51c.961-.86,2.868-1.368,3.891-.313.923.952-.094,1.9-1.107,2.1-1.117.225-2.243-.187-3.366-.025a.818.818,0,0,0-.262.088A2.162,2.162,0,0,1,184.345,226.676Z" style="fill: #1d1d1b"/>
          <path d="M260.692,305.824c-.818-19.594-17.765-36.351-37.766-34.972a3.238,3.238,0,0,0-1.995,1.11,39.2,39.2,0,0,0-34.9,14.907c-10.881,14.135-12.759,35.067-2.788,50.214,6.644,10.091,18.027,14.788,29.708,15.176l-4.377,9.858c-.5,1.118-.542,2.7.506,3.5a42,42,0,0,1,5.349,4.854,287.355,287.355,0,0,0-12.6,51.353q-1.017,6.871-1.69,13.786c-.4,4.1-1.119,8.437-.432,12.531.636,3.79,2.763,6.68,5.331,9.433,3.234,3.465,6.6,6.814,9.994,10.117,1.846,1.8,4.1-.953,4.738-2.63l4.89-12.944c1.3-3.453,3.215-7.2,3.16-10.982s-2.25-7.221-3.528-10.692a72.232,72.232,0,0,1-3.222-11.881c-3.026-16.381-.822-33.288,1.417-49.637a4.855,4.855,0,0,0,1.723-1.636,19.791,19.791,0,0,0,2.64-6.973,8.9,8.9,0,0,0-.65-5.8c-.638-1.2-2.1-2-3.115-2.979a47.932,47.932,0,0,0,10.463-3.078C250.218,341.338,261.453,324.041,260.692,305.824Zm-39.617,57.438a14.439,14.439,0,0,0-2.352,1.082,48.536,48.536,0,0,0-4.349-4.062l2.514-5.662c.555,1.883,1.708,2.614,3.113,3.826C221.706,359.919,221.716,361.515,221.075,363.262Zm-.039,76.51c.769,1.8,1.553,3.565,1.161,5.555a42.108,42.108,0,0,1-2.333,6.338q-1.439,3.811-2.879,7.621c-2.038-2.02-4.06-4.056-6.042-6.132-2.75-2.881-5.658-5.769-6.014-9.955-.354-4.166.434-8.57.893-12.707q.7-6.274,1.678-12.514a276.267,276.267,0,0,1,8.173-35.989c-1.385,11.863-2.16,23.831-.673,35.691A81.521,81.521,0,0,0,221.036,439.772ZM238.93,339.436c-13.223,7.969-32.51,8.584-44.967-1.338-12.16-9.684-14.982-28.622-8.289-42.219,7.587-15.414,27.4-21.486,42.7-14.2,1.449.69,3.116-.691,4.037-2.381a33.16,33.16,0,0,1,21.3,20.947A34.066,34.066,0,0,1,238.93,339.436Z" style="fill: #1d1d1b"/>
          <path d="M210.777,367.946c-21.961-.984-44.108-9.133-59.12-25.673-13.907-15.323-21.251-36.951-15.433-57.3a49.491,49.491,0,0,1,17.444-25.819,9.172,9.172,0,0,0,10.031,1.294,11.787,11.787,0,0,0,6.877-10.881c-.18-4.2-3.269-8-7.549-8.354-2.924-.241-5.923,6.637-2.6,6.911a5.124,5.124,0,0,1,4.4,3.311c.732,1.862.108,2.461-1.781,2.9a5.582,5.582,0,0,1-5.474-1.7c-1.076-1.215-2.231-3.736-1.448-5.384.563-1.184,1.472-3.512-.074-4.405-1.419-.819-3.307.993-3.851,2.138a13.961,13.961,0,0,0-1.187,9.827c-16.308,13.167-24.5,35.249-21.7,55.927,3.146,23.25,18.794,43.176,39.358,53.887a94.82,94.82,0,0,0,39.512,10.235C211.115,374.989,214.064,368.094,210.777,367.946Z" style="fill: #1d1d1b"/>
          <path d="M292.352,273.514c-.976-11.665-4.006-23.455-11.353-32.769,4.521-2.866,7.4-8.883,5.448-14.23-1.559-4.265-5.708-7.042-10.272-6.084-5.133,1.077-9.1,5.968-9.783,11.042-.657,4.9,4.861,1.9,5.3-1.346.289-2.154,2.42-3.083,4.484-2.964a6.086,6.086,0,0,1,5.032,3.857c1.955,4.645-3.926,5.265-6.916,3.459-2.631-1.589-6.448,4.93-3.777,6.543a9.435,9.435,0,0,0,5.145,1.411,3.163,3.163,0,0,0,.031,3.219c12.653,15.277,13.5,38.272,9.629,56.9a87.351,87.351,0,0,1-28.1,48,90.5,90.5,0,0,1-26.861,16.2,5.391,5.391,0,0,0-3.288,4.069c-.2,1.164.279,3.391,2.008,2.724C269.361,358.021,295.974,316.807,292.352,273.514Z" style="fill: #1d1d1b"/>
          <path d="M251.124,573.408c-8.077-3.23-17.81,1.714-24.192,7.313,0-1.944.422-4.034.565-5.89q.331-4.317.644-8.635.6-8.3,1.119-16.614,1.029-16.62,1.619-33.262c.33-9.8.5-19.633-1.072-29.342-.875-5.389-3.389-22.038-12.108-19.193-3.581,1.169-6.726,4.739-8.952,7.633a48.684,48.684,0,0,0-6.274,11.166c-3.69,8.925-5.757,18.683-7.271,28.188-3.235,20.324-3.049,40.953-1.975,61.458a20.014,20.014,0,0,0-12.538-3.335c-5.914.449-11.809,4.4-12.6,10.655-.955,7.521,6.623,10.5,12.849,10,7-.572,13.563-3.15,18.275-8.473,1.784-2.016,1.365-4.914-.162-5.274-1.3-21.477-2.008-43.175,1.165-64.521,1.525-10.266,3.5-21.264,8.119-30.655a32.01,32.01,0,0,1,3.2-5.281c1.137-1.49,3.331-4.5,5.3-4.926,4.319-.938,6.36,10.335,6.96,13.025,2.329,10.441,2,21.28,1.645,31.9-.4,11.76-1,23.513-1.744,35.256q-.567,8.973-1.237,17.941-.319,4.318-.659,8.634c-.179,2.29-.548,4.714.326,6.907,1.545,3.875,6.637,5.036,10.317,5.808,4.6.965,9.874,1.091,14.341-.574a14.133,14.133,0,0,0,8.913-9.905C256.62,579.283,255.261,575.063,251.124,573.408Zm-77.586,9.024c-.241-3.093,7.042-2.784,9.022-2.461a17.639,17.639,0,0,1,9.151,4.547,25.988,25.988,0,0,1-6.126,1.795C182.475,586.868,173.932,587.5,173.538,582.432Zm66.326,5.168c-2.586-.126-7.687-.534-10.639-2.419a24.959,24.959,0,0,1,9.813-4.976c3.183-.807,10.3-1.888,11.43,2.651C251.655,587.616,242.6,587.734,239.864,587.6Z" style="fill: #1d1d1b"/>
          <path d="M236.77,316.34a5.547,5.547,0,0,0-2.671,4.626c-.162,6.2-11.45,8.834-16.146,9.13-6.787.429-13.415-2.208-17.358-7.854-1.9-2.722-6.377,3.285-4.686,5.707,5.831,8.348,16.432,10.614,25.907,8.034,8.549-2.328,17.477-8.339,17.729-18.04C239.589,316.261,238.137,315.671,236.77,316.34Z" style="fill: #1d1d1b"/>
          <path d="M213.251,306.242a4.054,4.054,0,0,1-1.821-2.855,10.226,10.226,0,0,0-.053-1.157,5.649,5.649,0,0,0,2.671-4.627c-.067-1.481-1.359-2.563-2.776-1.6-5.226,3.543-7.959,12.672-1.8,16.784C212,314.468,215.872,307.991,213.251,306.242Z" style="fill: #1d1d1b"/>
          <path d="M229.575,301.623A5.368,5.368,0,0,0,232.246,297c-.077-1.719-1.3-2.27-2.776-1.6-5.305,2.4-8.375,10.423-4.751,15.356,1.982,2.7,6.432-3.332,4.686-5.706a3.348,3.348,0,0,1-.754-2.651c.042-.22,0-.26.171-.419C228.567,302.213,229.594,301.614,229.575,301.623Z" style="fill: #1d1d1b"/>
        </g>
      </g>
    </g>
  </g>
</svg>
